<svg xmlns="http://www.w3.org/2000/svg" viewBox="0 0 400 80" width="400" height="80">
  <defs>
    <linearGradient id="cyanGradient" x1="0%" y1="0%" x2="100%" y2="100%">
      <stop offset="0%" style="stop-color:#06b6d4;stop-opacity:1" />
      <stop offset="100%" style="stop-color:#14b8a6;stop-opacity:1" />
    </linearGradient>
  </defs>
  
  <!-- Phone Icon Circle -->
  <circle cx="40" cy="40" r="35" fill="url(#cyanGradient)"/>
  
  <!-- Phone Handset Icon -->
  <path d="M28 26c-1 0-2 1-2 2v2c0 10 8 18 18 18h2c1 0 2-1 2-2v-4c0-1-1-2-2-2h-4c-1 0-2 1-2 2v1c-5-1-9-5-10-10h1c1 0 2-1 2-2v-4c0-1-1-2-2-2h-3z" fill="white"/>
  
  <!-- DialGenix.ai Text -->
  <text x="90" y="50" font-family="Arial, Helvetica, sans-serif" font-size="32" font-weight="bold">
    <tspan fill="url(#cyanGradient)">DialGenix</tspan><tspan fill="#64748b">.ai</tspan>
  </text>
</svg>
