<svg xmlns="http://www.w3.org/2000/svg" viewBox="0 0 400 80" width="400" height="80">
  <defs>
    <linearGradient id="cyanGrad" x1="0%" y1="0%" x2="100%" y2="0%">
      <stop offset="0%" stop-color="#06b6d4"/>
      <stop offset="100%" stop-color="#14b8a6"/>
    </linearGradient>
  </defs>
  
  <!-- Rounded Square Background -->
  <rect x="5" y="5" width="70" height="70" rx="16" fill="url(#cyanGrad)"/>
  
  <!-- Simple Phone Icon -->
  <g transform="translate(22, 20)" fill="white">
    <path d="M34.5 28.5c-1.5-1.5-3.5-1.5-5 0l-2 2c-4-2-7.5-5.5-9.5-9.5l2-2c1.5-1.5 1.5-3.5 0-5l-4-4c-1.5-1.5-3.5-1.5-5 0l-2.5 2.5c-1.5 1.5-2 3.5-1.5 5.5 1.5 6 5 11.5 10 16s10 8.5 16 10c2 .5 4 0 5.5-1.5l2.5-2.5c1.5-1.5 1.5-3.5 0-5l-6.5-6.5z"/>
  </g>
  
  <!-- DialGenix.ai Text -->
  <text x="90" y="52" font-family="system-ui, -apple-system, Arial, sans-serif" font-size="34" font-weight="700" letter-spacing="-0.5">
    <tspan fill="#06b6d4">Dial</tspan><tspan fill="#14b8a6">Genix</tspan><tspan fill="#64748b">.ai</tspan>
  </text>
</svg>