<svg xmlns="http://www.w3.org/2000/svg" viewBox="0 0 400 100" width="400" height="100">
  <defs>
    <linearGradient id="cyanGrad" x1="0%" y1="0%" x2="0%" y2="100%">
      <stop offset="0%" stop-color="#22d3ee"/>
      <stop offset="100%" stop-color="#14b8a6"/>
    </linearGradient>
  </defs>
  
  <!-- Tall Oval/Pill Shape -->
  <ellipse cx="45" cy="50" rx="30" ry="42" fill="url(#cyanGrad)"/>
  
  <!-- Phone Handset Icon -->
  <path d="M32 30 Q28 30 28 34 L28 38 Q28 58 48 70 L52 70 Q56 70 56 66 L56 60 Q56 56 52 56 L48 56 Q44 56 44 60 L44 62 Q36 58 34 50 L36 50 Q40 50 40 46 L40 42 Q40 38 36 38 L32 38 Z" fill="white"/>
  
  <!-- IntentBrain.ai Text -->
  <text x="95" y="60" font-family="Arial, Helvetica, sans-serif" font-size="32" font-weight="bold" fill="white">IntentBrain.ai</text>
</svg>