<svg xmlns="http://www.w3.org/2000/svg" viewBox="0 0 400 100" width="400" height="100">
  <defs>
    <linearGradient id="cyanGradient" x1="0%" y1="0%" x2="100%" y2="100%">
      <stop offset="0%" style="stop-color:#06b6d4;stop-opacity:1" />
      <stop offset="100%" style="stop-color:#14b8a6;stop-opacity:1" />
    </linearGradient>
  </defs>
  
  <!-- Phone Icon Circle -->
  <circle cx="45" cy="50" r="40" fill="url(#cyanGradient)"/>
  
  <!-- Phone Icon -->
  <path d="M35 35c-1.5 0-3 1.5-3 3v3c0 12 9 21 21 21h3c1.5 0 3-1.5 3-3v-4.5c0-1.5-1.5-3-3-3h-4.5c-1.5 0-3 1.5-3 3v1.5c-6-1.5-10.5-6-12-12h1.5c1.5 0 3-1.5 3-3V38c0-1.5-1.5-3-3-3H35z" fill="white"/>
  
  <!-- DialGenix Text -->
  <text x="100" y="62" font-family="Arial, sans-serif" font-size="38" font-weight="bold" fill="url(#cyanGradient)">DialGenix</text>
  
  <!-- .ai Text -->
  <text x="315" y="62" font-family="Arial, sans-serif" font-size="38" font-weight="bold" fill="#64748b">.ai</text>
</svg>
