<svg xmlns="http://www.w3.org/2000/svg" viewBox="0 0 350 90" width="350" height="90">
  <defs>
    <linearGradient id="grad1" x1="0%" y1="0%" x2="0%" y2="100%">
      <stop offset="0%" stop-color="#22d3ee"/>
      <stop offset="100%" stop-color="#14b8a6"/>
    </linearGradient>
    <linearGradient id="textGrad" x1="0%" y1="0%" x2="100%" y2="0%">
      <stop offset="0%" stop-color="#06b6d4"/>
      <stop offset="100%" stop-color="#14b8a6"/>
    </linearGradient>
  </defs>
  
  <!-- Tall Oval/Pill Shape -->
  <ellipse cx="35" cy="45" rx="26" ry="38" fill="url(#grad1)"/>
  
  <!-- Simple Phone Handset - Centered -->
  <g transform="translate(19, 25)">
    <path fill="white" d="M27.2 21.7c-1.4-1.4-3.7-1.4-5.1 0L20 23.8c-3-1.8-5.5-4.3-7.3-7.3l2.1-2.1c1.4-1.4 1.4-3.7 0-5.1L10.2 4.7c-1.4-1.4-3.7-1.4-5.1 0L3 6.8C1.6 8.2 1.2 10.2 1.6 12c1.2 5.2 4.2 10 8.4 14.2s9 7.2 14.2 8.4c1.8.4 3.8 0 5.2-1.4l2.1-2.1c1.4-1.4 1.4-3.7 0-5.1l-4.3-4.3z"/>
  </g>
  
  <!-- DialGenix.ai Text in Cyan -->
  <text x="75" y="54" font-family="Arial, Helvetica, sans-serif" font-size="28" font-weight="bold" fill="url(#textGrad)">DialGenix.ai</text>
</svg>